<svg width="1440" height="1744" viewBox="0 0 1440 1744" fill="none" xmlns="http://www.w3.org/2000/svg">
<path d="M961.973 146.321C848.06 209.416 902.643 318.664 944.174 365.4C908.57 547.675 1048 564.032 1122.17 549.426C1186.25 633.552 1273.46 602.005 1309.06 575.716C1487.05 652.831 1531.54 543.584 1531.54 479.321C1574.26 451.279 1573.07 374.163 1567.14 339.11C1638.34 233.952 1561.21 160.926 1513.74 137.558C1499.51 32.3997 1389.15 29.4847 1335.76 41.172C1264.56 -28.9333 1175.57 6.11368 1139.97 32.4003C1026.06 -9.66283 973.841 90.8214 961.973 146.321Z" fill="#FFEAC2"/>
<path d="M714.466 658.749C671.789 682.358 692.238 723.235 707.797 740.723C694.459 808.925 746.696 815.045 774.482 809.58C798.488 841.058 831.162 829.254 844.499 819.417C911.181 848.271 927.852 807.394 927.852 783.349C943.855 772.856 943.411 744.001 941.188 730.886C967.861 691.538 938.965 664.214 921.183 655.47C915.849 616.123 874.506 615.032 854.501 619.405C827.828 593.174 794.487 606.288 781.151 616.123C738.474 600.384 718.912 637.983 714.466 658.749Z" fill="#FFFAEF"/>
<path d="M-75.6483 265.828C-165.058 315.343 -122.216 401.077 -89.6186 437.755C-117.564 580.798 -8.12315 593.634 50.0903 582.172C100.384 648.192 168.838 623.434 196.779 602.803C336.482 663.321 371.408 577.587 371.408 527.156C404.937 505.149 404.005 444.631 399.349 417.123C455.23 334.598 394.692 277.29 357.438 258.951C346.261 176.426 259.645 174.139 217.734 183.31C161.853 128.294 92.0013 155.798 64.0607 176.427C-25.3494 143.417 -66.3329 222.274 -75.6483 265.828Z" fill="#FFF3DA"/>
<path fill-rule="evenodd" clip-rule="evenodd" d="M-9 881.877H-2.90723V748.421C105.678 850.543 226.613 875.686 319.37 881.877H1134.72C1227.48 875.686 1348.42 850.543 1457 748.421V910.186C1455.43 910.087 1453.73 909.982 1451.92 909.871V1659.8H827.969L721.098 1744L614.597 1659.8H-9V881.877Z" fill="url(#paint0_linear_1526_6952)"/>
<path d="M-184.747 1060.48C-268.964 1097.78 -228.61 1162.35 -197.906 1189.97C-224.228 1297.71 -121.143 1307.38 -66.3106 1298.74C-18.9382 1348.47 45.5408 1329.82 71.8588 1314.28C203.449 1359.86 236.346 1295.29 236.346 1257.31C267.928 1240.73 267.05 1195.15 262.664 1174.43C315.3 1112.28 258.278 1069.12 223.187 1055.3C212.66 993.15 131.074 991.427 91.5973 998.335C38.9613 956.899 -26.8336 977.614 -53.1516 993.151C-137.369 968.289 -175.972 1027.68 -184.747 1060.48Z" fill="#FFFDF9"/>
<path d="M1242.96 1296.73C1159.23 1334.12 1199.35 1398.88 1229.88 1426.58C1203.71 1534.62 1306.2 1544.31 1360.71 1535.65C1407.81 1585.52 1471.92 1566.82 1498.09 1551.24C1628.91 1596.94 1661.62 1532.19 1661.62 1494.1C1693.02 1477.48 1692.15 1431.77 1687.79 1411C1740.12 1348.67 1683.43 1305.38 1648.54 1291.53C1638.07 1229.2 1556.96 1227.48 1517.71 1234.4C1465.38 1192.85 1399.96 1213.62 1373.8 1229.2C1290.07 1204.27 1251.69 1263.83 1242.96 1296.73Z" fill="white"/>
<defs>
<linearGradient id="paint0_linear_1526_6952" x1="724" y1="748.421" x2="724" y2="1752.5" gradientUnits="userSpaceOnUse">
<stop offset="0.145" stop-color="#FFECC3" stop-opacity="0"/>
<stop offset="1" stop-color="#FFECC3"/>
</linearGradient>
</defs>
</svg>
