<svg width="1440" height="1042" viewBox="0 0 1440 1042" fill="none" xmlns="http://www.w3.org/2000/svg">
<rect width="1440" height="1042" fill="url(#paint0_linear_1646_3)"/>
<path d="M-37.8332 671.623C-54.8714 680.084 -46.7072 694.735 -40.4954 701.002C-45.8207 725.446 -24.9654 727.64 -13.8721 725.681C-4.28808 736.963 8.75681 732.732 14.0813 729.207C40.7035 739.549 47.359 724.898 47.359 716.28C53.7484 712.519 53.5709 702.177 52.6835 697.477C63.3324 683.374 51.7961 673.581 44.6968 670.447C42.567 656.345 26.0612 655.954 18.0746 657.521C7.4257 648.12 -5.88541 652.82 -11.2099 656.345C-28.2481 650.704 -36.058 664.18 -37.8332 671.623Z" stroke="#FFF7E9" stroke-width="5"/>
<path d="M97.1668 671.623C80.1286 680.084 88.2928 694.735 94.5046 701.002C89.1793 725.446 110.035 727.64 121.128 725.681C130.712 736.963 143.757 732.732 149.081 729.207C175.703 739.549 182.359 724.898 182.359 716.28C188.748 712.519 188.571 702.177 187.683 697.477C198.332 683.374 186.796 673.581 179.697 670.447C177.567 656.345 161.061 655.954 153.075 657.521C142.426 648.12 129.115 652.82 123.79 656.345C106.752 650.704 98.942 664.18 97.1668 671.623Z" stroke="#FFF7E9" stroke-width="5"/>
<path d="M232.167 671.623C215.129 680.084 223.293 694.735 229.505 701.002C224.179 725.446 245.035 727.64 256.128 725.681C265.712 736.963 278.757 732.732 284.081 729.207C310.703 739.549 317.359 724.898 317.359 716.28C323.748 712.519 323.571 702.177 322.683 697.477C333.332 683.374 321.796 673.581 314.697 670.447C312.567 656.345 296.061 655.954 288.075 657.521C277.426 648.12 264.115 652.82 258.79 656.345C241.752 650.704 233.942 664.18 232.167 671.623Z" stroke="#FFF7E9" stroke-width="5"/>
<path d="M367.167 671.623C350.129 680.084 358.293 694.735 364.505 701.002C359.179 725.446 380.035 727.64 391.128 725.681C400.712 736.963 413.757 732.732 419.081 729.207C445.703 739.549 452.359 724.898 452.359 716.28C458.748 712.519 458.571 702.177 457.683 697.477C468.332 683.374 456.796 673.581 449.697 670.447C447.567 656.345 431.061 655.954 423.075 657.521C412.426 648.12 399.115 652.82 393.79 656.345C376.752 650.704 368.942 664.18 367.167 671.623Z" stroke="#FFF7E9" stroke-width="5"/>
<path d="M502.167 671.623C485.129 680.084 493.293 694.735 499.505 701.002C494.179 725.446 515.035 727.64 526.128 725.681C535.712 736.963 548.757 732.732 554.081 729.207C580.703 739.549 587.359 724.898 587.359 716.28C593.748 712.519 593.571 702.177 592.683 697.477C603.332 683.374 591.796 673.581 584.697 670.447C582.567 656.345 566.061 655.954 558.075 657.521C547.426 648.12 534.115 652.82 528.79 656.345C511.752 650.704 503.942 664.18 502.167 671.623Z" stroke="#FFF7E9" stroke-width="5"/>
<path d="M637.167 671.623C620.129 680.084 628.293 694.735 634.505 701.002C629.179 725.446 650.035 727.64 661.128 725.681C670.712 736.963 683.757 732.732 689.081 729.207C715.703 739.549 722.359 724.898 722.359 716.28C728.748 712.519 728.571 702.177 727.683 697.477C738.332 683.374 726.796 673.581 719.697 670.447C717.567 656.345 701.061 655.954 693.075 657.521C682.426 648.12 669.115 652.82 663.79 656.345C646.752 650.704 638.942 664.18 637.167 671.623Z" stroke="#FFF7E9" stroke-width="5"/>
<path d="M772.167 671.623C755.129 680.084 763.293 694.735 769.505 701.002C764.179 725.446 785.035 727.64 796.128 725.681C805.712 736.963 818.757 732.732 824.081 729.207C850.703 739.549 857.359 724.898 857.359 716.28C863.748 712.519 863.571 702.177 862.683 697.477C873.332 683.374 861.796 673.581 854.697 670.447C852.567 656.345 836.061 655.954 828.075 657.521C817.426 648.12 804.115 652.82 798.79 656.345C781.752 650.704 773.942 664.18 772.167 671.623Z" stroke="#FFF7E9" stroke-width="5"/>
<path d="M907.167 671.623C890.129 680.084 898.293 694.735 904.505 701.002C899.179 725.446 920.035 727.64 931.128 725.681C940.712 736.963 953.757 732.732 959.081 729.207C985.703 739.549 992.359 724.898 992.359 716.28C998.748 712.519 998.571 702.177 997.683 697.477C1008.33 683.374 996.796 673.581 989.697 670.447C987.567 656.345 971.061 655.954 963.075 657.521C952.426 648.12 939.115 652.82 933.79 656.345C916.752 650.704 908.942 664.18 907.167 671.623Z" stroke="#FFF7E9" stroke-width="5"/>
<path d="M1042.17 671.623C1025.13 680.084 1033.29 694.735 1039.5 701.002C1034.18 725.446 1055.03 727.64 1066.13 725.681C1075.71 736.963 1088.76 732.732 1094.08 729.207C1120.7 739.549 1127.36 724.898 1127.36 716.28C1133.75 712.519 1133.57 702.177 1132.68 697.477C1143.33 683.374 1131.8 673.581 1124.7 670.447C1122.57 656.345 1106.06 655.954 1098.07 657.521C1087.43 648.12 1074.11 652.82 1068.79 656.345C1051.75 650.704 1043.94 664.18 1042.17 671.623Z" stroke="#FFF7E9" stroke-width="5"/>
<path d="M1177.17 671.623C1160.13 680.084 1168.29 694.735 1174.5 701.002C1169.18 725.446 1190.03 727.64 1201.13 725.681C1210.71 736.963 1223.76 732.732 1229.08 729.207C1255.7 739.549 1262.36 724.898 1262.36 716.28C1268.75 712.519 1268.57 702.177 1267.68 697.477C1278.33 683.374 1266.8 673.581 1259.7 670.447C1257.57 656.345 1241.06 655.954 1233.07 657.521C1222.43 648.12 1209.11 652.82 1203.79 656.345C1186.75 650.704 1178.94 664.18 1177.17 671.623Z" stroke="#FFF7E9" stroke-width="5"/>
<path d="M1312.17 671.623C1295.13 680.084 1303.29 694.735 1309.5 701.002C1304.18 725.446 1325.03 727.64 1336.13 725.681C1345.71 736.963 1358.76 732.732 1364.08 729.207C1390.7 739.549 1397.36 724.898 1397.36 716.28C1403.75 712.519 1403.57 702.177 1402.68 697.477C1413.33 683.374 1401.8 673.581 1394.7 670.447C1392.57 656.345 1376.06 655.954 1368.07 657.521C1357.43 648.12 1344.11 652.82 1338.79 656.345C1321.75 650.704 1313.94 664.18 1312.17 671.623Z" stroke="#FFF7E9" stroke-width="5"/>
<path d="M1447.17 671.623C1430.13 680.084 1438.29 694.735 1444.5 701.002C1439.18 725.446 1460.03 727.64 1471.13 725.681C1480.71 736.963 1493.76 732.732 1499.08 729.207C1525.7 739.549 1532.36 724.898 1532.36 716.28C1538.75 712.519 1538.57 702.177 1537.68 697.477C1548.33 683.374 1536.8 673.581 1529.7 670.447C1527.57 656.345 1511.06 655.954 1503.07 657.521C1492.43 648.12 1479.11 652.82 1473.79 656.345C1456.75 650.704 1448.94 664.18 1447.17 671.623Z" stroke="#FFF7E9" stroke-width="5"/>
<path d="M36.1668 782.623C19.1286 791.084 27.2928 805.735 33.5046 812.002C28.1793 836.446 49.0346 838.64 60.1279 836.681C69.7119 847.963 82.7568 843.732 88.0813 840.207C114.703 850.549 121.359 835.898 121.359 827.28C127.748 823.519 127.571 813.177 126.683 808.477C137.332 794.374 125.796 784.581 118.697 781.447C116.567 767.345 100.061 766.954 92.0746 768.521C81.4257 759.12 68.1146 763.82 62.7901 767.345C45.7519 761.704 37.942 775.18 36.1668 782.623Z" stroke="#FFF7E9" stroke-width="5"/>
<path d="M171.167 782.623C154.129 791.084 162.293 805.735 168.505 812.002C163.179 836.446 184.035 838.64 195.128 836.681C204.712 847.963 217.757 843.732 223.081 840.207C249.703 850.549 256.359 835.898 256.359 827.28C262.748 823.519 262.571 813.177 261.683 808.477C272.332 794.374 260.796 784.581 253.697 781.447C251.567 767.345 235.061 766.954 227.075 768.521C216.426 759.12 203.115 763.82 197.79 767.345C180.752 761.704 172.942 775.18 171.167 782.623Z" stroke="#FFF7E9" stroke-width="5"/>
<path d="M306.167 782.623C289.129 791.084 297.293 805.735 303.505 812.002C298.179 836.446 319.035 838.64 330.128 836.681C339.712 847.963 352.757 843.732 358.081 840.207C384.703 850.549 391.359 835.898 391.359 827.28C397.748 823.519 397.571 813.177 396.683 808.477C407.332 794.374 395.796 784.581 388.697 781.447C386.567 767.345 370.061 766.954 362.075 768.521C351.426 759.12 338.115 763.82 332.79 767.345C315.752 761.704 307.942 775.18 306.167 782.623Z" stroke="#FFF7E9" stroke-width="5"/>
<path d="M441.167 782.623C424.129 791.084 432.293 805.735 438.505 812.002C433.179 836.446 454.035 838.64 465.128 836.681C474.712 847.963 487.757 843.732 493.081 840.207C519.703 850.549 526.359 835.898 526.359 827.28C532.748 823.519 532.571 813.177 531.683 808.477C542.332 794.374 530.796 784.581 523.697 781.447C521.567 767.345 505.061 766.954 497.075 768.521C486.426 759.12 473.115 763.82 467.79 767.345C450.752 761.704 442.942 775.18 441.167 782.623Z" stroke="#FFF7E9" stroke-width="5"/>
<path d="M576.167 782.623C559.129 791.084 567.293 805.735 573.505 812.002C568.179 836.446 589.035 838.64 600.128 836.681C609.712 847.963 622.757 843.732 628.081 840.207C654.703 850.549 661.359 835.898 661.359 827.28C667.748 823.519 667.571 813.177 666.683 808.477C677.332 794.374 665.796 784.581 658.697 781.447C656.567 767.345 640.061 766.954 632.075 768.521C621.426 759.12 608.115 763.82 602.79 767.345C585.752 761.704 577.942 775.18 576.167 782.623Z" stroke="#FFF7E9" stroke-width="5"/>
<path d="M711.167 782.623C694.129 791.084 702.293 805.735 708.505 812.002C703.179 836.446 724.035 838.64 735.128 836.681C744.712 847.963 757.757 843.732 763.081 840.207C789.703 850.549 796.359 835.898 796.359 827.28C802.748 823.519 802.571 813.177 801.683 808.477C812.332 794.374 800.796 784.581 793.697 781.447C791.567 767.345 775.061 766.954 767.075 768.521C756.426 759.12 743.115 763.82 737.79 767.345C720.752 761.704 712.942 775.18 711.167 782.623Z" stroke="#FFF7E9" stroke-width="5"/>
<path d="M846.167 782.623C829.129 791.084 837.293 805.735 843.505 812.002C838.179 836.446 859.035 838.64 870.128 836.681C879.712 847.963 892.757 843.732 898.081 840.207C924.703 850.549 931.359 835.898 931.359 827.28C937.748 823.519 937.571 813.177 936.683 808.477C947.332 794.374 935.796 784.581 928.697 781.447C926.567 767.345 910.061 766.954 902.075 768.521C891.426 759.12 878.115 763.82 872.79 767.345C855.752 761.704 847.942 775.18 846.167 782.623Z" stroke="#FFF7E9" stroke-width="5"/>
<path d="M981.167 782.623C964.129 791.084 972.293 805.735 978.505 812.002C973.179 836.446 994.035 838.64 1005.13 836.681C1014.71 847.963 1027.76 843.732 1033.08 840.207C1059.7 850.549 1066.36 835.898 1066.36 827.28C1072.75 823.519 1072.57 813.177 1071.68 808.477C1082.33 794.374 1070.8 784.581 1063.7 781.447C1061.57 767.345 1045.06 766.954 1037.07 768.521C1026.43 759.12 1013.11 763.82 1007.79 767.345C990.752 761.704 982.942 775.18 981.167 782.623Z" stroke="#FFF7E9" stroke-width="5"/>
<path d="M1116.17 782.623C1099.13 791.084 1107.29 805.735 1113.5 812.002C1108.18 836.446 1129.03 838.64 1140.13 836.681C1149.71 847.963 1162.76 843.732 1168.08 840.207C1194.7 850.549 1201.36 835.898 1201.36 827.28C1207.75 823.519 1207.57 813.177 1206.68 808.477C1217.33 794.374 1205.8 784.581 1198.7 781.447C1196.57 767.345 1180.06 766.954 1172.07 768.521C1161.43 759.12 1148.11 763.82 1142.79 767.345C1125.75 761.704 1117.94 775.18 1116.17 782.623Z" stroke="#FFF7E9" stroke-width="5"/>
<path d="M1251.17 782.623C1234.13 791.084 1242.29 805.735 1248.5 812.002C1243.18 836.446 1264.03 838.64 1275.13 836.681C1284.71 847.963 1297.76 843.732 1303.08 840.207C1329.7 850.549 1336.36 835.898 1336.36 827.28C1342.75 823.519 1342.57 813.177 1341.68 808.477C1352.33 794.374 1340.8 784.581 1333.7 781.447C1331.57 767.345 1315.06 766.954 1307.07 768.521C1296.43 759.12 1283.11 763.82 1277.79 767.345C1260.75 761.704 1252.94 775.18 1251.17 782.623Z" stroke="#FFF7E9" stroke-width="5"/>
<path d="M1386.17 782.623C1369.13 791.084 1377.29 805.735 1383.5 812.002C1378.18 836.446 1399.03 838.64 1410.13 836.681C1419.71 847.963 1432.76 843.732 1438.08 840.207C1464.7 850.549 1471.36 835.898 1471.36 827.28C1477.75 823.519 1477.57 813.177 1476.68 808.477C1487.33 794.374 1475.8 784.581 1468.7 781.447C1466.57 767.345 1450.06 766.954 1442.07 768.521C1431.43 759.12 1418.11 763.82 1412.79 767.345C1395.75 761.704 1387.94 775.18 1386.17 782.623Z" stroke="#FFF7E9" stroke-width="5"/>
<path d="M-37.8332 893.623C-54.8714 902.084 -46.7072 916.735 -40.4954 923.002C-45.8207 947.446 -24.9654 949.64 -13.8721 947.681C-4.28808 958.963 8.75681 954.732 14.0813 951.207C40.7035 961.549 47.359 946.898 47.359 938.28C53.7484 934.519 53.5709 924.177 52.6835 919.477C63.3324 905.374 51.7961 895.581 44.6968 892.447C42.567 878.345 26.0612 877.954 18.0746 879.521C7.4257 870.12 -5.88541 874.82 -11.2099 878.345C-28.2481 872.704 -36.058 886.18 -37.8332 893.623Z" stroke="#FFF7E9" stroke-width="5"/>
<path d="M97.1668 893.623C80.1286 902.084 88.2928 916.735 94.5046 923.002C89.1793 947.446 110.035 949.64 121.128 947.681C130.712 958.963 143.757 954.732 149.081 951.207C175.703 961.549 182.359 946.898 182.359 938.28C188.748 934.519 188.571 924.177 187.683 919.477C198.332 905.374 186.796 895.581 179.697 892.447C177.567 878.345 161.061 877.954 153.075 879.521C142.426 870.12 129.115 874.82 123.79 878.345C106.752 872.704 98.942 886.18 97.1668 893.623Z" stroke="#FFF7E9" stroke-width="5"/>
<path d="M232.167 893.623C215.129 902.084 223.293 916.735 229.505 923.002C224.179 947.446 245.035 949.64 256.128 947.681C265.712 958.963 278.757 954.732 284.081 951.207C310.703 961.549 317.359 946.898 317.359 938.28C323.748 934.519 323.571 924.177 322.683 919.477C333.332 905.374 321.796 895.581 314.697 892.447C312.567 878.345 296.061 877.954 288.075 879.521C277.426 870.12 264.115 874.82 258.79 878.345C241.752 872.704 233.942 886.18 232.167 893.623Z" stroke="#FFF7E9" stroke-width="5"/>
<path d="M367.167 893.623C350.129 902.084 358.293 916.735 364.505 923.002C359.179 947.446 380.035 949.64 391.128 947.681C400.712 958.963 413.757 954.732 419.081 951.207C445.703 961.549 452.359 946.898 452.359 938.28C458.748 934.519 458.571 924.177 457.683 919.477C468.332 905.374 456.796 895.581 449.697 892.447C447.567 878.345 431.061 877.954 423.075 879.521C412.426 870.12 399.115 874.82 393.79 878.345C376.752 872.704 368.942 886.18 367.167 893.623Z" stroke="#FFF7E9" stroke-width="5"/>
<path d="M502.167 893.623C485.129 902.084 493.293 916.735 499.505 923.002C494.179 947.446 515.035 949.64 526.128 947.681C535.712 958.963 548.757 954.732 554.081 951.207C580.703 961.549 587.359 946.898 587.359 938.28C593.748 934.519 593.571 924.177 592.683 919.477C603.332 905.374 591.796 895.581 584.697 892.447C582.567 878.345 566.061 877.954 558.075 879.521C547.426 870.12 534.115 874.82 528.79 878.345C511.752 872.704 503.942 886.18 502.167 893.623Z" stroke="#FFF7E9" stroke-width="5"/>
<path d="M637.167 893.623C620.129 902.084 628.293 916.735 634.505 923.002C629.179 947.446 650.035 949.64 661.128 947.681C670.712 958.963 683.757 954.732 689.081 951.207C715.703 961.549 722.359 946.898 722.359 938.28C728.748 934.519 728.571 924.177 727.683 919.477C738.332 905.374 726.796 895.581 719.697 892.447C717.567 878.345 701.061 877.954 693.075 879.521C682.426 870.12 669.115 874.82 663.79 878.345C646.752 872.704 638.942 886.18 637.167 893.623Z" stroke="#FFF7E9" stroke-width="5"/>
<path d="M772.167 893.623C755.129 902.084 763.293 916.735 769.505 923.002C764.179 947.446 785.035 949.64 796.128 947.681C805.712 958.963 818.757 954.732 824.081 951.207C850.703 961.549 857.359 946.898 857.359 938.28C863.748 934.519 863.571 924.177 862.683 919.477C873.332 905.374 861.796 895.581 854.697 892.447C852.567 878.345 836.061 877.954 828.075 879.521C817.426 870.12 804.115 874.82 798.79 878.345C781.752 872.704 773.942 886.18 772.167 893.623Z" stroke="#FFF7E9" stroke-width="5"/>
<path d="M907.167 893.623C890.129 902.084 898.293 916.735 904.505 923.002C899.179 947.446 920.035 949.64 931.128 947.681C940.712 958.963 953.757 954.732 959.081 951.207C985.703 961.549 992.359 946.898 992.359 938.28C998.748 934.519 998.571 924.177 997.683 919.477C1008.33 905.374 996.796 895.581 989.697 892.447C987.567 878.345 971.061 877.954 963.075 879.521C952.426 870.12 939.115 874.82 933.79 878.345C916.752 872.704 908.942 886.18 907.167 893.623Z" stroke="#FFF7E9" stroke-width="5"/>
<path d="M1042.17 893.623C1025.13 902.084 1033.29 916.735 1039.5 923.002C1034.18 947.446 1055.03 949.64 1066.13 947.681C1075.71 958.963 1088.76 954.732 1094.08 951.207C1120.7 961.549 1127.36 946.898 1127.36 938.28C1133.75 934.519 1133.57 924.177 1132.68 919.477C1143.33 905.374 1131.8 895.581 1124.7 892.447C1122.57 878.345 1106.06 877.954 1098.07 879.521C1087.43 870.12 1074.11 874.82 1068.79 878.345C1051.75 872.704 1043.94 886.18 1042.17 893.623Z" stroke="#FFF7E9" stroke-width="5"/>
<path d="M1177.17 893.623C1160.13 902.084 1168.29 916.735 1174.5 923.002C1169.18 947.446 1190.03 949.64 1201.13 947.681C1210.71 958.963 1223.76 954.732 1229.08 951.207C1255.7 961.549 1262.36 946.898 1262.36 938.28C1268.75 934.519 1268.57 924.177 1267.68 919.477C1278.33 905.374 1266.8 895.581 1259.7 892.447C1257.57 878.345 1241.06 877.954 1233.07 879.521C1222.43 870.12 1209.11 874.82 1203.79 878.345C1186.75 872.704 1178.94 886.18 1177.17 893.623Z" stroke="#FFF7E9" stroke-width="5"/>
<path d="M1312.17 893.623C1295.13 902.084 1303.29 916.735 1309.5 923.002C1304.18 947.446 1325.03 949.64 1336.13 947.681C1345.71 958.963 1358.76 954.732 1364.08 951.207C1390.7 961.549 1397.36 946.898 1397.36 938.28C1403.75 934.519 1403.57 924.177 1402.68 919.477C1413.33 905.374 1401.8 895.581 1394.7 892.447C1392.57 878.345 1376.06 877.954 1368.07 879.521C1357.43 870.12 1344.11 874.82 1338.79 878.345C1321.75 872.704 1313.94 886.18 1312.17 893.623Z" stroke="#FFF7E9" stroke-width="5"/>
<path d="M1447.17 893.623C1430.13 902.084 1438.29 916.735 1444.5 923.002C1439.18 947.446 1460.03 949.64 1471.13 947.681C1480.71 958.963 1493.76 954.732 1499.08 951.207C1525.7 961.549 1532.36 946.898 1532.36 938.28C1538.75 934.519 1538.57 924.177 1537.68 919.477C1548.33 905.374 1536.8 895.581 1529.7 892.447C1527.57 878.345 1511.06 877.954 1503.07 879.521C1492.43 870.12 1479.11 874.82 1473.79 878.345C1456.75 872.704 1448.94 886.18 1447.17 893.623Z" stroke="#FFF7E9" stroke-width="5"/>
<path d="M36.1668 1004.62C19.1286 1013.08 27.2928 1027.73 33.5046 1034C28.1793 1058.45 49.0346 1060.64 60.1279 1058.68C69.7119 1069.96 82.7568 1065.73 88.0813 1062.21C114.703 1072.55 121.359 1057.9 121.359 1049.28C127.748 1045.52 127.571 1035.18 126.683 1030.48C137.332 1016.37 125.796 1006.58 118.697 1003.45C116.567 989.345 100.061 988.954 92.0746 990.521C81.4257 981.12 68.1146 985.82 62.7901 989.345C45.7519 983.704 37.942 997.18 36.1668 1004.62Z" stroke="#FFF7E9" stroke-width="5"/>
<path d="M171.167 1004.62C154.129 1013.08 162.293 1027.73 168.505 1034C163.179 1058.45 184.035 1060.64 195.128 1058.68C204.712 1069.96 217.757 1065.73 223.081 1062.21C249.703 1072.55 256.359 1057.9 256.359 1049.28C262.748 1045.52 262.571 1035.18 261.683 1030.48C272.332 1016.37 260.796 1006.58 253.697 1003.45C251.567 989.345 235.061 988.954 227.075 990.521C216.426 981.12 203.115 985.82 197.79 989.345C180.752 983.704 172.942 997.18 171.167 1004.62Z" stroke="#FFF7E9" stroke-width="5"/>
<path d="M306.167 1004.62C289.129 1013.08 297.293 1027.73 303.505 1034C298.179 1058.45 319.035 1060.64 330.128 1058.68C339.712 1069.96 352.757 1065.73 358.081 1062.21C384.703 1072.55 391.359 1057.9 391.359 1049.28C397.748 1045.52 397.571 1035.18 396.683 1030.48C407.332 1016.37 395.796 1006.58 388.697 1003.45C386.567 989.345 370.061 988.954 362.075 990.521C351.426 981.12 338.115 985.82 332.79 989.345C315.752 983.704 307.942 997.18 306.167 1004.62Z" stroke="#FFF7E9" stroke-width="5"/>
<path d="M441.167 1004.62C424.129 1013.08 432.293 1027.73 438.505 1034C433.179 1058.45 454.035 1060.64 465.128 1058.68C474.712 1069.96 487.757 1065.73 493.081 1062.21C519.703 1072.55 526.359 1057.9 526.359 1049.28C532.748 1045.52 532.571 1035.18 531.683 1030.48C542.332 1016.37 530.796 1006.58 523.697 1003.45C521.567 989.345 505.061 988.954 497.075 990.521C486.426 981.12 473.115 985.82 467.79 989.345C450.752 983.704 442.942 997.18 441.167 1004.62Z" stroke="#FFF7E9" stroke-width="5"/>
<path d="M576.167 1004.62C559.129 1013.08 567.293 1027.73 573.505 1034C568.179 1058.45 589.035 1060.64 600.128 1058.68C609.712 1069.96 622.757 1065.73 628.081 1062.21C654.703 1072.55 661.359 1057.9 661.359 1049.28C667.748 1045.52 667.571 1035.18 666.683 1030.48C677.332 1016.37 665.796 1006.58 658.697 1003.45C656.567 989.345 640.061 988.954 632.075 990.521C621.426 981.12 608.115 985.82 602.79 989.345C585.752 983.704 577.942 997.18 576.167 1004.62Z" stroke="#FFF7E9" stroke-width="5"/>
<path d="M711.167 1004.62C694.129 1013.08 702.293 1027.73 708.505 1034C703.179 1058.45 724.035 1060.64 735.128 1058.68C744.712 1069.96 757.757 1065.73 763.081 1062.21C789.703 1072.55 796.359 1057.9 796.359 1049.28C802.748 1045.52 802.571 1035.18 801.683 1030.48C812.332 1016.37 800.796 1006.58 793.697 1003.45C791.567 989.345 775.061 988.954 767.075 990.521C756.426 981.12 743.115 985.82 737.79 989.345C720.752 983.704 712.942 997.18 711.167 1004.62Z" stroke="#FFF7E9" stroke-width="5"/>
<path d="M846.167 1004.62C829.129 1013.08 837.293 1027.73 843.505 1034C838.179 1058.45 859.035 1060.64 870.128 1058.68C879.712 1069.96 892.757 1065.73 898.081 1062.21C924.703 1072.55 931.359 1057.9 931.359 1049.28C937.748 1045.52 937.571 1035.18 936.683 1030.48C947.332 1016.37 935.796 1006.58 928.697 1003.45C926.567 989.345 910.061 988.954 902.075 990.521C891.426 981.12 878.115 985.82 872.79 989.345C855.752 983.704 847.942 997.18 846.167 1004.62Z" stroke="#FFF7E9" stroke-width="5"/>
<path d="M981.167 1004.62C964.129 1013.08 972.293 1027.73 978.505 1034C973.179 1058.45 994.035 1060.64 1005.13 1058.68C1014.71 1069.96 1027.76 1065.73 1033.08 1062.21C1059.7 1072.55 1066.36 1057.9 1066.36 1049.28C1072.75 1045.52 1072.57 1035.18 1071.68 1030.48C1082.33 1016.37 1070.8 1006.58 1063.7 1003.45C1061.57 989.345 1045.06 988.954 1037.07 990.521C1026.43 981.12 1013.11 985.82 1007.79 989.345C990.752 983.704 982.942 997.18 981.167 1004.62Z" stroke="#FFF7E9" stroke-width="5"/>
<path d="M1116.17 1004.62C1099.13 1013.08 1107.29 1027.73 1113.5 1034C1108.18 1058.45 1129.03 1060.64 1140.13 1058.68C1149.71 1069.96 1162.76 1065.73 1168.08 1062.21C1194.7 1072.55 1201.36 1057.9 1201.36 1049.28C1207.75 1045.52 1207.57 1035.18 1206.68 1030.48C1217.33 1016.37 1205.8 1006.58 1198.7 1003.45C1196.57 989.345 1180.06 988.954 1172.07 990.521C1161.43 981.12 1148.11 985.82 1142.79 989.345C1125.75 983.704 1117.94 997.18 1116.17 1004.62Z" stroke="#FFF7E9" stroke-width="5"/>
<path d="M1251.17 1004.62C1234.13 1013.08 1242.29 1027.73 1248.5 1034C1243.18 1058.45 1264.03 1060.64 1275.13 1058.68C1284.71 1069.96 1297.76 1065.73 1303.08 1062.21C1329.7 1072.55 1336.36 1057.9 1336.36 1049.28C1342.75 1045.52 1342.57 1035.18 1341.68 1030.48C1352.33 1016.37 1340.8 1006.58 1333.7 1003.45C1331.57 989.345 1315.06 988.954 1307.07 990.521C1296.43 981.12 1283.11 985.82 1277.79 989.345C1260.75 983.704 1252.94 997.18 1251.17 1004.62Z" stroke="#FFF7E9" stroke-width="5"/>
<path d="M1386.17 1004.62C1369.13 1013.08 1377.29 1027.73 1383.5 1034C1378.18 1058.45 1399.03 1060.64 1410.13 1058.68C1419.71 1069.96 1432.76 1065.73 1438.08 1062.21C1464.7 1072.55 1471.36 1057.9 1471.36 1049.28C1477.75 1045.52 1477.57 1035.18 1476.68 1030.48C1487.33 1016.37 1475.8 1006.58 1468.7 1003.45C1466.57 989.345 1450.06 988.954 1442.07 990.521C1431.43 981.12 1418.11 985.82 1412.79 989.345C1395.75 983.704 1387.94 997.18 1386.17 1004.62Z" stroke="#FFF7E9" stroke-width="5"/>
<defs>
<linearGradient id="paint0_linear_1646_3" x1="720" y1="0" x2="720" y2="1042" gradientUnits="userSpaceOnUse">
<stop stop-color="#FFF0D1" stop-opacity="0"/>
<stop offset="1" stop-color="#FFF0D1"/>
</linearGradient>
</defs>
</svg>
