<svg width="280" height="71" viewBox="0 0 280 71" fill="none" xmlns="http://www.w3.org/2000/svg">
<path fill-rule="evenodd" clip-rule="evenodd" d="M28.7712 0C12.8813 0 0 12.8813 0 28.7712C0 44.6611 12.8813 57.5424 28.7712 57.5424H80.6866L106.089 70.2439L102.731 57.5424H251.229C267.119 57.5424 280 44.6611 280 28.7712C280 12.8813 267.119 0 251.229 0H28.7712Z" fill="#6BA6FF"/>
<path d="M52.35 16.05C53.31 16.14 54.18 16.17 55.2 16.17C56.49 16.17 62.1 15.9 63.93 15.69C64.92 15.6 65.61 15.45 66.03 15.33L68.4 18.09C67.77 18.48 66.63 19.23 66.03 19.74C63.87 21.45 60.93 23.91 58.89 25.53C62.91 25.11 67.89 24.81 71.52 24.81L71.55 28.35C68.67 28.17 65.64 28.17 63.81 28.41C61.08 28.8 58.77 30.75 58.77 33.21C58.77 35.58 60.63 36.51 63.33 36.81C65.01 36.99 66.78 36.96 67.89 36.87L67.11 40.83C59.4 41.16 54.93 38.82 54.93 33.84C54.93 31.98 56.01 30.12 57.12 29.1C54.36 29.31 51.03 29.76 48 30.3L47.67 26.67C49.26 26.49 51.36 26.25 52.92 26.07C55.59 24.3 59.52 20.91 61.38 19.23C60.15 19.32 56.43 19.5 55.2 19.62C54.48 19.68 53.46 19.8 52.53 19.89L52.35 16.05ZM92.73 18.45C92.31 21.51 91.71 25.02 90.66 28.56C88.86 34.62 86.28 38.34 83.01 38.34C79.65 38.34 76.89 34.65 76.89 29.58C76.89 22.68 82.92 16.74 90.69 16.74C98.1 16.74 102.81 21.9 102.81 28.47C102.81 34.77 98.94 39.24 91.38 40.41L89.1 36.87C90.27 36.72 91.11 36.57 91.92 36.39C95.73 35.46 98.73 32.73 98.73 28.32C98.73 23.61 95.79 20.25 90.6 20.25C84.24 20.25 80.76 25.44 80.76 29.22C80.76 32.25 81.96 33.72 83.1 33.72C84.39 33.72 85.53 31.8 86.79 27.75C87.66 24.93 88.32 21.48 88.62 18.33L92.73 18.45ZM118.08 14.64C117.96 15.21 117.84 16.5 117.81 17.25C117.66 19.62 117.57 22.86 117.57 25.65C117.57 28.92 117.75 34.11 117.75 35.85C117.75 39.54 116.43 40.56 114.45 40.56C111.54 40.56 107.4 38.04 107.4 34.86C107.4 31.95 111.15 28.89 115.32 27.42C117.99 26.46 121.02 25.98 123.3 25.98C127.92 25.98 131.58 28.38 131.58 32.52C131.58 36.09 129.72 38.76 124.95 39.93C123.57 40.23 122.22 40.32 120.99 40.44L119.64 36.54C120.96 36.54 122.28 36.54 123.3 36.33C125.73 35.91 127.68 34.68 127.68 32.52C127.68 30.45 125.88 29.28 123.27 29.28C120.72 29.28 118.08 29.82 115.74 30.75C113.04 31.77 111.12 33.39 111.12 34.68C111.12 35.64 112.53 36.45 113.31 36.45C113.85 36.45 114.24 36.21 114.24 35.16C114.24 33.6 114.09 29.43 114.09 25.8C114.09 22.38 114.12 18.66 114.12 17.28C114.12 16.68 114.03 15.18 113.94 14.64H118.08ZM126.63 17.91C128.91 19.02 132.39 20.97 134.01 22.11L132.18 25.17C130.74 23.97 126.84 21.72 124.98 20.82L126.63 17.91ZM108.21 19.56C109.98 19.77 111.27 19.77 112.35 19.77C115.47 19.77 120.15 19.2 123.24 18.3L123.33 22.02C119.94 22.8 115.11 23.34 112.47 23.34C110.49 23.34 109.32 23.31 108.3 23.19L108.21 19.56ZM145.71 16.08L148.74 14.97C149.94 17.19 151.14 20.13 151.53 22.02L148.26 23.31C147.93 21.42 146.82 18.39 145.71 16.08ZM151.62 14.82L154.77 13.92C155.7 16.26 156.6 19.26 156.84 21.18L153.48 22.23C153.3 20.31 152.49 17.19 151.62 14.82ZM149.94 28.23L151.74 25.86C154.5 27.75 158.07 30.51 159.69 32.49L157.74 35.25C156.18 33.21 152.73 30.24 149.94 28.23ZM146.34 24.96H149.79V41.43H146.34V24.96ZM159.72 24.9H163.23V41.37H159.72V24.9ZM147.99 36.51H161.37V39.75H147.99V36.51ZM160.05 14.34L163.77 15.18C162.78 18.66 161.19 22.32 159.66 24.63C158.85 24.09 157.14 23.37 156.18 23.01C157.77 20.91 159.21 17.49 160.05 14.34ZM155.58 24.21L158.73 24.9C157.41 29.49 155.1 33.78 152.43 36.51C151.86 35.97 150.54 34.95 149.82 34.5C152.43 32.13 154.47 28.29 155.58 24.21ZM139.8 13.53H143.28V41.7H139.8V13.53ZM136.98 19.47L139.35 19.77C139.38 22.65 138.93 26.16 137.88 28.38L135.54 27.33C136.5 25.47 136.92 22.17 136.98 19.47ZM142.68 19.53L144.9 18.57C145.86 20.31 146.85 22.56 147.12 24.03L144.72 25.17C144.48 23.67 143.58 21.33 142.68 19.53ZM171.39 16.32C172.2 16.38 173.25 16.44 173.88 16.44C175.62 16.44 178.8 16.32 180.18 16.2C180.93 16.14 181.71 15.96 182.25 15.75L184.62 17.64C184.23 18.09 183.87 18.48 183.63 18.87C182.61 20.58 180.99 24.45 179.64 27.57C178.44 30.33 177 33.9 175.77 35.79C174.57 37.62 173.16 38.43 171.09 38.43C168.48 38.43 166.5 36.63 166.5 33.57C166.5 28.77 171.09 25.08 177.51 25.08C184.5 25.08 190.62 28.8 193.77 30.96L192.03 35.13C188.34 31.86 183.06 28.44 176.88 28.44C172.5 28.44 169.98 30.81 169.98 33C169.98 33.99 170.55 34.5 171.27 34.5C171.87 34.5 172.26 34.23 172.83 33.48C173.82 32.01 174.9 29.25 175.98 26.88C177.03 24.51 178.26 21.57 179.16 19.71C177.96 19.74 175.35 19.83 174 19.92C173.37 19.95 172.32 20.07 171.54 20.16L171.39 16.32ZM191.13 23.4C190.71 31.92 189.03 37.44 181.86 41.16L178.65 38.55C186.06 35.37 186.96 29.76 187.23 26.25C187.29 25.08 187.32 23.88 187.2 22.95L191.13 23.4Z" fill="white"/>
<path d="M207.204 43.6931C207.172 43.7876 212.05 45.1398 215.972 42.8229C220.119 40.372 219.654 36.4291 215.704 32.8516C212.604 30.0435 208.012 27.4223 206.274 28.0542C204.541 28.6842 206.691 32.4497 211.201 35.4375C215.917 38.5614 220.944 40.393 223.956 37.9239C227.305 35.1776 226.634 29.3801 221.222 24.0251C215.523 18.385 209.619 15.1532 207.82 17.1727C205.873 19.3591 209.459 23.5385 214.737 27.6736C219.401 31.3273 227.16 36.8233 230.951 34.0691C233.45 32.2534 233.287 27.5852 225.398 20.1143C218.073 13.1775 213.924 11.3608 213.924 11.3608" stroke="white" stroke-width="3" stroke-linecap="round" stroke-linejoin="round"/>
</svg>
